<svg width="16" height="16" viewBox="0 0 16 16" fill="none" xmlns="http://www.w3.org/2000/svg">
<path d="M4.66668 2.00008V0.666748H6.00001V2.00008H10V0.666748H11.3333V2.00008H14C14.3682 2.00008 14.6667 2.29856 14.6667 2.66675V6.00008H13.3333V3.33341H11.3333V4.66675H10V3.33341H6.00001V4.66675H4.66668V3.33341H2.66668V12.6667H6.66668V14.0001H2.00001C1.63182 14.0001 1.33334 13.7016 1.33334 13.3334V2.66675C1.33334 2.29856 1.63182 2.00008 2.00001 2.00008H4.66668ZM11.3333 8.00008C9.86061 8.00008 8.66668 9.19401 8.66668 10.6667C8.66668 12.1395 9.86061 13.3334 11.3333 13.3334C12.8061 13.3334 14 12.1395 14 10.6667C14 9.19401 12.8061 8.00008 11.3333 8.00008ZM7.33334 10.6667C7.33334 8.45761 9.12421 6.66675 11.3333 6.66675C13.5425 6.66675 15.3333 8.45761 15.3333 10.6667C15.3333 12.8759 13.5425 14.6667 11.3333 14.6667C9.12421 14.6667 7.33334 12.8759 7.33334 10.6667ZM10.6667 8.66675V10.9429L12.1953 12.4715L13.1381 11.5287L12 10.3906V8.66675H10.6667Z" fill="#98A2B3"/>
</svg>
